# xmcd
#
# Track frame offsets:
#	150
#	14090
#	32514
#	53450
#	73900
#	89824
#	110926
#	132765
#	153353
#	171849
#
# Disc length: 2475 seconds
#
# Revision: 0
# Processed by: cddbd v1.5.2PL0 Copyright (c) Steve Scherf et al.
# Submitted via: dBpowerAMP V4.0
#
DISCID=8a09a90a
DTITLE=Randy Clark - One Life
DYEAR=2007
DGENRE=Country
TTITLE0=Lonelier Than Tonight
TTITLE1=How Can It Be
TTITLE2=Don't Forget Your Gun
TTITLE3=One Life
TTITLE4=Enough Of You
TTITLE5=When You Were Here
TTITLE6=One You
TTITLE7=Stranded
TTITLE8=Waste Of Skin
TTITLE9=Make Love Last
EXTD=
EXTT0=
EXTT1=
EXTT2=
EXTT3=
EXTT4=
EXTT5=
EXTT6=
EXTT7=
EXTT8=
EXTT9=
PLAYORDER=
